M48
; DRILL file {KiCad 8.0.8-2.fc41} date 2025-01-26T13:38:29+0100
; FORMAT={-:-/ absolute / inch / decimal}
; #@! TF.CreationDate,2025-01-26T13:38:29+01:00
; #@! TF.GenerationSoftware,Kicad,Pcbnew,8.0.8-2.fc41
; #@! TF.FileFunction,Plated,1,2,PTH
FMAT,2
INCH
; #@! TA.AperFunction,Plated,PTH,ViaDrill
T1C0.0079
%
G90
G05
T1
X5.4213Y-3.9606
X5.5039Y-3.9331
X5.5039Y-3.9606
X5.5866Y-3.9331
X5.5866Y-3.9606
X5.6693Y-3.9331
X5.6693Y-3.9606
X5.752Y-3.9331
X5.752Y-3.9606
X5.8346Y-3.9331
X5.8346Y-3.9606
X5.9173Y-3.9331
X5.9173Y-3.9606
X6.0Y-3.9331
X6.0Y-3.9606
X6.0827Y-3.9331
X6.0827Y-3.9606
X6.1654Y-3.9331
X6.1654Y-3.9606
X6.248Y-3.9331
X6.248Y-3.9606
X6.3307Y-3.9331
X6.3307Y-3.9606
X6.4134Y-3.9331
X6.4134Y-3.9606
X6.4961Y-3.9331
X6.4961Y-3.9606
X6.5787Y-3.9331
X6.5787Y-3.9606
X6.6614Y-3.9331
X6.6614Y-3.9606
X6.7441Y-3.9331
X6.7441Y-3.9606
X6.8268Y-3.9331
X6.8268Y-3.9606
X6.9094Y-3.9331
X6.9094Y-3.9606
X6.9921Y-3.9331
X6.9921Y-3.9606
X7.0748Y-3.9331
X7.0748Y-3.9606
X7.1575Y-3.9331
X7.1575Y-3.9606
X7.2402Y-3.9331
M30
